<svg xmlns="http://www.w3.org/2000/svg" viewBox="0 0 800 450">
  <defs>
    <linearGradient id="bg" x1="0" y1="0" x2="1" y2="1">
      <stop offset="0" stop-color="#160e22"/>
      <stop offset="1" stop-color="#241436"/>
    </linearGradient>
    <linearGradient id="glow" x1="0" y1="0" x2="1" y2="0">
      <stop offset="0" stop-color="#38bdf8" stop-opacity="0.25"/>
      <stop offset="1" stop-color="#38bdf8" stop-opacity="0"/>
    </linearGradient>
  </defs>
  <rect width="800" height="450" fill="url(#bg)"/>
  <circle cx="700" cy="60" r="180" fill="#38bdf8" opacity="0.07"/>
  <circle cx="80" cy="420" r="140" fill="#38bdf8" opacity="0.05"/>

  <text x="56" y="86" font-family="Segoe UI, Arial, sans-serif" font-size="34" font-weight="700" fill="#f3ecfa">E-Learning LMS</text>
  <rect x="56" y="100" width="120" height="4" rx="2" fill="url(#glow)"/>
  <rect x="56" y="100" width="46" height="4" rx="2" fill="#38bdf8"/>

  <rect x="40" y="126" width="720" height="216" rx="12" fill="#120a1c" stroke="#38bdf8" stroke-opacity="0.35"/>
  <rect x="40" y="126" width="720" height="34" rx="12" fill="#1a1226"/>
  <rect x="40" y="148" width="720" height="12" fill="#1a1226"/>
  <circle cx="64" cy="143" r="6" fill="#ff5f57"/>
  <circle cx="84" cy="143" r="6" fill="#febc2e"/>
  <circle cx="104" cy="143" r="6" fill="#28c840"/>

  <text x="76" y="184" font-family="Consolas, Menlo, monospace" font-size="15" fill="#f3ecfa"><tspan fill="#38bdf8" font-weight="700">$</tspan> npm run lms-api</text>
  <text x="76" y="212" font-family="Consolas, Menlo, monospace" font-size="15" fill="#b39ddb">[auth] role=instructor verified</text>
  <text x="76" y="242" font-family="Consolas, Menlo, monospace" font-size="15" fill="#b39ddb">[course] 'Distributed Systems' created</text>
  <text x="76" y="272" font-family="Consolas, Menlo, monospace" font-size="15" fill="#b39ddb">[enroll] 42 students enrolled</text>
  <text x="76" y="302" font-family="Consolas, Menlo, monospace" font-size="15" fill="#38bdf8">✓ progress tracking active</text>

  <rect x="56" y="368" rx="12" width="81.39999999999999" height="26" fill="none" stroke="#38bdf8" stroke-opacity="0.55"/>
  <text x="96.69999999999999" y="386" text-anchor="middle" font-family="Segoe UI, Arial, sans-serif" font-size="13" fill="#e4d8f0">Node.js</text>
  <rect x="149.39999999999998" y="368" rx="12" width="81.39999999999999" height="26" fill="none" stroke="#38bdf8" stroke-opacity="0.55"/>
  <text x="190.09999999999997" y="386" text-anchor="middle" font-family="Segoe UI, Arial, sans-serif" font-size="13" fill="#e4d8f0">Express</text>
  <rect x="242.79999999999995" y="368" rx="12" width="81.39999999999999" height="26" fill="none" stroke="#38bdf8" stroke-opacity="0.55"/>
  <text x="283.49999999999994" y="386" text-anchor="middle" font-family="Segoe UI, Arial, sans-serif" font-size="13" fill="#e4d8f0">MongoDB</text>
  <rect x="336.19999999999993" y="368" rx="12" width="56.8" height="26" fill="none" stroke="#38bdf8" stroke-opacity="0.55"/>
  <text x="364.5999999999999" y="386" text-anchor="middle" font-family="Segoe UI, Arial, sans-serif" font-size="13" fill="#e4d8f0">RBAC</text>
</svg>
