<?xml version="1.0" encoding="UTF-8"?>
<svg version="1.1" viewBox="0 0 2000 2000" width="1280" height="1280" xmlns="http://www.w3.org/2000/svg">
<path transform="translate(974,302)" d="m0 0h53l24 1 28 3 21 3 12 2 20 4 25 6 29 8 40 14 22 9 15 7 23 11 26 14 18 11 14 9 19 13 18 13 16 13 15 13 8 7 10 9 31 31 7 8 13 15 11 14 14 18 13 19 13 20 16 27 14 27 10 21 4 10 4 9 5 13 7 19 11 35 9 38 3 15 5 29 2 20 1 7 1 20 1 9v60l-1 9-1 20-2 13-2 18-3 19-5 26-9 36-8 26-11 30-12 29-23 46-10 17-11 18-8 12-12 17-12 16-18 22-12 14-7 7-7 8-23 23-8 7-12 11-14 11-13 11-19 14-15 10-14 9-1 4 8 19 5 13 7 18 11 33 9 34 5 21 3 16v29l-4 16-6 15-7 11-8 10-9 9-12 9-14 7-15 5 4 1h55l276 1 20 2 16 1 2 1 11 1 3 2-3 3-3 1-31 3-31 1-62 1-468 1h-95l-241-1-410-2-35-3-5-3v-2l16-3 40-2 61-1 269-1 3-1-15-4-16-8-11-8-15-15-8-12-7-16-3-10-2-9v-29l4-19 7-30 10-34 8-23 6-16 5-13 8-18v-5l-11-8-21-14-17-13-16-13-13-11-10-9-3-2v-2l-3-1v-2l-4-2-27-27-7-8-9-10-14-17-14-18-12-17-10-15-12-19-12-21-15-29-8-18-7-15-3-7-2-6-7-19-10-31-9-35-6-29-4-27-2-13-3-36v-71l2-19 1-16 6-40 6-29 8-32 9-29 7-18 3-7 2-6 8-20 17-35 14-26 14-23 10-15 13-18 15-20 12-14 9-11 16-17 32-32 11-9 10-9 14-11 18-14 30-20 19-12 29-16 17-9 11-5 31-13 27-10 28-9 22-6 26-6 15-3 28-4 34-4z" fill="#0E156E"/>
<path transform="translate(974,302)" d="m0 0h53l24 1 28 3 21 3 12 2 20 4 25 6 29 8 40 14 22 9 15 7 23 11 26 14 18 11 14 9 19 13 18 13 16 13 15 13 8 7 10 9 31 31 7 8 13 15 11 14 14 18 13 19 13 20 16 27 14 27 10 21 4 10 4 9 5 13 7 19 11 35 9 38 3 15 5 29 2 20 1 7 1 20 1 9v60l-1 9-1 20-2 13-2 18-3 19-5 26-9 36-8 26-11 30-12 29-23 46-10 17-11 18-8 12-12 17-12 16-18 22-12 14-7 7-7 8-23 23-8 7-12 11-14 11-13 11-19 14-15 10-14 9-3 3-8-18-1-5 5-40v-11l-5-13-8-9-10-5-11-2-20-1-14-18-6-8-7-9v-2h-2l-8-10-12-13-6-6-1-9 20-7 16-8 12-7h2v-2l10-7 3-1v-2l8-7 8-8 8-11 1-2h2l3 23 2 10 3 2h6l7-10 10-15 9-19 5-10 8-19 9-27 8-31 5-25 3-21 2-19 1-16v-56l-2-31-6-44-5-26-6-25-9-34-12-36-7-18-6-16-6-13-15-30-6-9-6-11-8-12-13-18-13-15-12-13-8-8-7-6v-2l-4-2-9-7v-2l-5-2-15-11-13-8-16-9-21-10-24-9-28-8-25-5-20-3-20-2-17-1h-45l-29 2-29 4-29 6-27 8-21 8-29 14-24 15-8 6-13 10-7 6h-2l-2 4h-2l-1 3-8 7-3 4h-2v2l-5 4-7 8-12 15-13 18-8 13-15 25-13 28-7 17-4 10-8 21-9 28-4 14-4 17-3 12-6 28-6 36-3 24-2 29v56l3 35 5 33 7 29 8 28 8 21 9 21 9 17 5 9 12 18 7 1 3-2 4-21 1-12h2l10 14 14 14 12 9 9 6 11 6 12 6 20 7-1 9-14 14-9 11-11 13-14 19-3 5h-2l-2 4-20 1-11 2-11 6-7 8-5 13v11l5 40-1 5-5 11-3 8-2-4-11-8-21-14-17-13-16-13-13-11-10-9-3-2v-2l-3-1v-2l-4-2-27-27-7-8-9-10-14-17-14-18-12-17-10-15-12-19-12-21-15-29-8-18-7-15-3-7-2-6-7-19-10-31-9-35-6-29-4-27-2-13-3-36v-71l2-19 1-16 6-40 6-29 8-32 9-29 7-18 3-7 2-6 8-20 17-35 14-26 14-23 10-15 13-18 15-20 12-14 9-11 16-17 32-32 11-9 10-9 14-11 18-14 30-20 19-12 29-16 17-9 11-5 31-13 27-10 28-9 22-6 26-6 15-3 28-4 34-4z" fill="#485069"/>
<path transform="translate(980,550)" d="m0 0h40l29 2 29 4 25 5 24 7 20 7 24 11 20 11 18 12 13 10 11 10 11 9 7 7 7 8 3 4v2l3 1 13 17 12 17 1 5h2l9 15 4 9v2h2l14 29 8 19 13 37 10 34 9 36 7 37 4 27 3 40v56l-2 24-3 24-3 19-7 29-7 24-11 29-7 15-12 22-3 2-6-32-2-2h-8l-2 5-8 12-9 11-9 10-13 11-17 11-17 8-21 7-16 3-16 1 4-5 5-5h2l2-4 10-12 10-15 9-16 12-25 12-36 6-24 5-27 3-24 2-28v-62l-2-30v-10l18-6 13-7 6-9 2-8-1-18-1-14-3-16-5-28-3-14-14-42-1-8h-2l-10-24-4-8v-2h-2l-6-11-7-11-10-13-2-5h-2v-2l-3-1v-2h-2l-5-5-5-4v3h2l11 15 9 14 6 10 8 16 2 8h2l9 22 8 24 7 27 4 17 5 32 3 29v11l-4 8-15 7-20 5-8 4-12 3h-21l-13-3-5-5-7-11-8-16-7-18-5-17v-3h-2l5 29 7 25 8 18-2 4-5 3-9 1-2-1h-9l-25 4-21 2h-21l-21-2-18-4-7-3-5-9-7-15-8-26-6-26v10l2 20 5 26 6 20v2l-12 4-11 2h-22l-12-3-10-4-8-6h-7l-13 6-6 1h-15l-8-2-16-8-7-6-12-22-8-16-10-21-9-23-6-20-5-30-2-20v-36l3-26 5-23 11-34-6 7-9 19-7 21-5 24-2 16v48l4 29 2 10-1 5-9 9-9 11-11 13-15 20-11 16h-1l1-13 10-54v-7l-8 20-8 26-7 30-5 27-3 29-1 21v59l3 37 4 28 6 28 8 27 7 19 7 16 12 23 8 12 9 12 8 9v2h2l6 7 2 2-16-1-11-2-21-6-18-8-14-8-13-10-12-11v-2h-2l-11-14-9-14-3-3h-6l-2 2-5 30-2 2-8-13-8-16-8-18-10-28-6-21-7-29-5-37-2-28v-55l3-36 5-35 6-31 12-48 8-26 10-28 11-26 12-25 12-22 13-20 11-15 14-17 11-12 12-12 11-9 12-10 15-10 15-9 21-11 25-10 18-6 29-7 31-5 21-2z" fill="#AB5533"/>
<path transform="translate(705,1369)" d="m0 0h590l9 4 6 7 2 6v9l-17 133-9 68-11 86-2 7h-547l-5-37-10-77-23-178v-12l4-8 7-6z" fill="#CFD0E5"/>
<path transform="translate(824,856)" d="m0 0 2 3 6 15 12 27 12 24 11 19 9 8 15 8 15 4h17l15-4 4-2 4 1 14 7 11 3 7 1h23l15-3 16-5 21 6 24 3h27l30-3 17-3 16 1 10-3 9-7 15 3h25l17-4 2 17 1 18v55l-8 30-9 25-9 20-12 20-11 14-15 15-14 11-15 10-16 9-19 9-21 8-24 7-30 6-29 3h-27l-22-2-24-4-25-6-24-8-21-9-21-11-15-10-13-10-13-12-11-12-9-13-8-14-10-21-8-22-9-33v-55l3-39 2-7 12-19 15-22 12-16 10-13h2l2-4 10-11z" fill="#FAC6A3"/>
<path transform="translate(865,968)" d="m0 0h23l16 2 19 5 20 9 11 7 3 1h8l17-4 8-1h21l15 3 13 5h9l19-10 15-6 16-4 13-2h28l18 3 23 7 21 8 18 5 14 6 3 3 2 13v8l-6 4-12 6-5 4-1 3-2 17-5 16-6 11-8 10-10 9-14 8-15 6-20 4-9 1h-19l-17-3-13-5-10-6-12-11-7-10-7-14-6-21-2-25v-12l-10-5-13-3h-17l-16 3-7 2v21l-2 18-5 17-8 15-9 10-10 9-12 7-14 5-9 2h-33l-21-4-19-8-11-7-9-8-9-12-6-13-4-14-2-16-10-7-13-6v-21l5-5 20-8 24-8 12-5 21-6 9-2z" fill="#0D146D"/>
<path transform="translate(1236,1382)" d="m0 0h74l2 4v9l-17 133-9 68-11 86-2 7-538-1-2-8-7-54v-3l5 1 15 7 26 10 25 8 23 6 32 6 36 4 12 1h57l35-3 28-4 30-7 18-6 16-6 25-12 16-9 12-8 17-13 12-11h2l2-4 10-10 9-11 10-14 7-11 10-19 8-20 6-20 5-26 2-25v-18l-2-26z" fill="#9596C3"/>
<path transform="translate(1330,779)" d="m0 0 2 2 12 35 10 36 7 28 7 37 4 27 3 40v56l-2 24-3 24-3 19-7 29-7 24-11 29-7 15-12 22-3 2-6-32-2-2h-8l-2 5-8 12-9 11-9 10-13 11-17 11-17 8-21 7-16 3-16 1 4-5 5-5h2l2-4 10-12 10-15 9-16 12-25 12-36 6-24 5-27 3-24 2-28v-62l-2-30v-10l18-6 13-7 6-9 2 4-2 10-6 9-7 6-6 3v57l-1 39-2 32-4 35-4 23-3 12 8-7 8-10 7-10 7-11 8-16 10-22 3-7 3 3 3 26 1 9 1 28 5-10 6-15 8-25 6-24 4-19 3-21 3-32 1-19v-32l-1-27-2-21-4-32-4-21-2-11-8-36-4-14z" fill="#7A4347"/>
<path transform="translate(992,1461)" d="m0 0h16l16 3 11 4 15 9 13 12 8 11 7 14 4 14 1 8v16l-3 16-7 16-7 11-11 12-15 10-14 6-13 3h-26l-13-3-10-4-10-6-8-6-9-8-10-15-6-14-3-13v-27l4-15 8-16 9-12 10-9 14-9 9-4 12-3z" fill="#F7666D"/>
<path transform="translate(768,849)" d="m0 0 1 2-9 27-8 32-5 26-3 24-2 32v59l3 37 4 28 6 28 8 27 7 19 7 16 12 23 8 12 9 12 8 9v2h2l6 7 2 2-16-1-11-2-21-6-18-8-14-8-13-10-12-11v-2h-2l-11-14-9-14-3-3h-6l-2 2-5 30-2 2-8-13-8-16-8-18-10-28-6-21-7-29 1-8 2 4 1 5h2l4 9 9 15 9 11 9 10 10 9-5-35-1-18v-11l3-20 2 1v5h2l3 9 8 21 3 7v3h2l3 7 10 19 13 20v2h2l7 10 7 7v-7l-3-16-4-26-3-26-2-25-1-27v-28l2-38 3-24 3-20 8-36 3-8 5-15 5-12 8-18 5-9z" fill="#7A4347"/>
<path transform="translate(872,984)" d="m0 0h11l17 2 15 4 13 5 11 6 9 7 2 5v22l-3 20-6 17-9 13-9 8-11 6-11 3-7 1h-20l-18-3-15-5-11-6-10-9-7-9-5-12-2-6-2-16 1-20 3-12 7-6 20-8 20-5z" fill="#F5C5A6"/>
<path transform="translate(1109,990)" d="m0 0h27l19 3 17 5 16 7 5 6 3 18v19l-4 18-7 14-9 10-14 9-17 6-17 3h-25l-15-4-11-6-8-7-7-10-4-8-5-15-3-21v-18l3-6 10-7 16-8 14-5z" fill="#F5C5A7"/>
<path transform="translate(845,1204)" d="m0 0 5 2 17 9 25 10 22 7 24 6-1 9-6 15-5 11 2 16 4 13 8 16 5 8v2h2l7 11 5 5 7 9v2h-68l-15-5-16-6-21-10-5-3v-2l-5-1v-2l-5-2-14-10-14-14-7-9v-9l23 3h23l4-2 1-5-4-4v-2l-4-2-16-15-7-9 1-3 10-6 5-1 6 12 9 12 9 10 8 8 17 13 10 5v2l4 1h2l-9-6-5-5-3-2v-2l-4-2-5-5-9-10-9-13-5-7-6-15-1-4v-10l3-12z" fill="#FA669F"/>
<path transform="translate(1152,1205)" d="m0 0 4 1 3 16-1 9-6 16-7 10-9 12-11 12-11 10h-2l-1 3-4 2h-3l-1 4 13-8 13-9 9-8h2v-2l7-6 4-6h2l2-5h2l1-4 5-5 6-11 5 2 9 6v3l-11 12-13 13-5 4-1 5 1 3 5 1h25l14-2h5l1 7-7 9-9 10h-2l-2 4-17 12-13 8-16 8-20 8-14 5-36 1h-34l2-5 4-5h2l2-4 10-13 9-16 8-18 3-14v-7l-8-18-4-12v-5l32-8 20-7 25-11z" fill="#FB669F"/>
<path transform="translate(732,1702)" d="m0 0h447l93 1 5 4 2 4v7l-6 7-493 1h-51l-7-6-1-9 4-6z" fill="#9596C3"/>
<path transform="translate(705,1369)" d="m0 0h590l9 4 6 7v2l-77 1h-358l-2 4-6 4-13 4-12 2h-30l-15-2-12-4-6-4-3-4h-48l-11 2-8 5-3 1-2 5-3 7-1 9 9 72 6 45 6 49 3 22 11 88-9 1-5-37-10-77-23-178v-12l4-8 7-6z" fill="#F0EFF6"/>
<path transform="translate(682,1465)" d="m0 0h1l7 48 3 27 3 20v10l-21 11-10 8-5 6v3l11-6 12-6 13-4h2l2 10 4 30 3 24 4 34 1 4v14l-5 11-3 1-16-4-12-5-11-8-9-8-9-12-8-16-4-14-1-7v-17l5-26 8-32 10-33 12-33 11-26z" fill="#F9679F"/>
<path transform="translate(1317,1466)" d="m0 0 3 2 11 27 3 8 7 18 6 19 6 21 5 17 4 17 4 21v18l-3 17-4 12-6 9-7 10-10 10-10 7-14 7-16 4-3-1-5-11 1-21 3-24 3-19 3-24 3-23 1-5 11 3 17 7 12 8-4-8-5-5-11-8-8-5-10-4 3-26 6-48 2-18z" fill="#FA669F"/>
<path transform="translate(952,1241)" d="m0 0 29 3h38l29-3 7 19 7 16-2 13-6 15-8 14-12 16-9 10-4 5h-2v2l-4 3h-30l-4-3v-2h-2l-7-8-11-13-12-18-8-18-3-11v-6l7-16z" fill="#FAC6A2"/>
<path transform="translate(980,550)" d="m0 0h40l29 2 29 4 25 5 24 7 20 7 24 11 20 11 18 12 13 10 9 8h-3l-15-11-2-1v-2l-4-1-17-10-28-13-25-9-21-6-23-5-26-4-24-2-19-1h-24l-36 2-25 3-31 6-25 7-20 7-29 13-9 5v7l-4 9-10 11-14 9-8 4-7 2-15 1-14 14-7 8-12 15-13 18-13 21-9 16-12 24-13 31-7 19-8 25-8 28-10 44-7 41-4 40-1 30v38l1 2 3 31v7h-1l-4-25-3-37v-55l3-36 5-35 6-31 12-48 8-26 10-28 11-26 12-25 12-22 13-20 11-15 14-17 11-12 12-12 11-9 12-10 15-10 15-9 21-11 25-10 18-6 29-7 31-5 21-2z" fill="#F5C3A3"/>
<path transform="translate(1252,773)" d="m0 0 2 2 10 29 7 27 4 17 5 32 3 29v11l-4 8-15 7-20 5-8 4-12 3h-21l-13-3-5-5-7-11-8-16-7-18-5-17v-3h-2l5 29 7 25 8 18-2 4-5 3-9 1-2-1h-9l-25 4-21 2h-21l-21-2-18-4-7-3-5-9-7-15-8-26-6-26v10l2 20 5 26 6 20v2l-12 4-11 2h-22l-12-3-10-4-8-6h-7l-13 6-6 1h-15l-6-1-2-5-8-10v-2l11 2h23l9-4h2l2-5 2-3 6 1 9 4 13 4 4 1h23l11-4h2l-2-14-2-12v-32l3-16 1-3h2l7 25 6 13 5 10 4 6v2h2l8 11 11 10 8 5 13 6 14 4 13 1h11l23-3 9-3 13-2 2-2v-11l-3-13-3-22v-27l2-10h2l7 21 10 19 12 18 5 5 10 8 12 6 3 1h20l12-4 8-7 1-2h2l1-4 3-5 4-13 2-16v-22l-2-21-5-26-5-18-5-17z" fill="#784448"/>
<path transform="translate(830,874)" d="m0 0h2l12 27 12 24 11 19 8 7 1 4 1 3 5 5 1 2-1 2h8v1l-25 1-15 2-16 4-18 6-15 6-24 8-12 6-1 2-2 20h-1v-15l1-8 1-1h-1l1-15 1-16 4-10 8-14h2l2-5 4-2 1-5 9-13 8-11 8-10 9-11 5-6h2l2-4z" fill="#FAC7A4"/>
<path transform="translate(764,1073)" d="m0 0 1 4 14 29 8 13 7 10 15 16 7 7 12 9 10 7 13 8 16 8 20 9 29 10 26 6 18 3 16 2 16 1h16l23-2 22-3 19-4 19-5 27-10 9-4h2v-2l9-3 20-11 11-8 12-9 10-9 11-11 9-11 9-15 7-15 6-12 2-5 1-3 1 5-9 24-8 18-12 20-11 14-15 15-14 11-15 10-16 9-19 9-21 8-24 7-30 6-29 3h-27l-22-2-24-4-25-6-24-8-21-9-21-11-15-10-13-10-13-12-11-12-9-13-8-14-10-21-8-22z" fill="#B18F96"/>
<path transform="translate(732,1702)" d="m0 0h447v3l-6 7-5 3h-447l1-6 4-5z" fill="#CACBE2"/>
<path transform="translate(875,952)" d="m0 0 19 9 12 3h17l15-4 4-2 4 1 14 7 11 3 7 1h23l15-3 16-5 21 6 24 3h27l30-3 17-3 16 1 10-3 9-7 15 3h25l17-4 2 17 1 18v55l-7 26-2-4 1-19v-18l-2-1 2-2v-13l-1-10v-10l-2-20-1-8-10 3-14 3h-16l-12-2-7-2-8 7h-2v2l-5 1-13-3-8-1h-28l-22 4-15 5-17 8-9 5h-9l-13-5-15-3h-21l-18 3-7 2h-8l-11-6-16-8-13-5-18-4-11-1v-1l-6-1-1-4-2-3-3-2-2-5z" fill="#B08F98"/>
<path transform="translate(1137,993)" d="m0 0 2 3v7l-4 10-3 4 2 4 2 5 12-4 6-3-1 5-7 8-4 3 1 7v14l-3 12-6 11-4 5-9 6-7 3h-9l-9-2-11-8-7-11-4-11-1-7v-8l3-14 4-8 9-10 9-5 3-1h14l6 1 6-3 7-8z" fill="#0D146D"/>
<path transform="translate(862,993)" d="m0 0 3 3 6 8 5 4 6 1 3-1h14l9 4 8 7 7 10 4 16v11l-4 15-6 9-5 5-5 4-7 3-11 1-11-3-10-9-4-5-5-11-2-7v-13l2-10-4-2-7-7-2-3 1-4 10 5 7 2 2-5 2-4-4-6-2-5-1-9z" fill="#0D146D"/>
<path transform="translate(952,1241)" d="m0 0 29 3h38l29-3 7 19 7 16-2 13-6 15-8 14-12 16-9 10-4 5h-2v2l-4 3h-30l-4-3v-2h-2l-7-8-11-13-4-7h3l4 4v2h2l4 5 9 6 12 6 8 2 7-4h2l1-3 5-5h2l2-4 9-16 4-14 2-20v-23h-16l-25-2-25-5-10-3-6-3z" fill="#B18F96"/>
<path transform="translate(1245,622)" d="m0 0h264l4 2 1 7-4 4h-253l-10-10-2-1z" fill="#47EE91"/>
<path transform="translate(834,672)" d="m0 0h2l-2 6-6 13-7 21-5 24-2 16v48l4 29 2 10-1 5-9 9-9 11-11 13-15 20-11 16h-1l1-13 10-54v-7l-1-2h3v3l12 1 11-4 4-3-1-18v-47l4-30 7-24 6-15 11-21z" fill="#774449"/>
<path transform="translate(980,550)" d="m0 0h40l29 2 29 4 25 5 24 7 20 7 24 11 20 11 18 12 13 10 9 8h-3l-15-11-2-1v-2l-4-1-17-10-28-13-25-9-21-6-23-5-26-4-24-2-19-1h-24l-36 2-25 3-31 6-12 3h-3v-2l2-1-1-2 3-2-1-3h-5l1-2 9-2 1-2 26-5 23-3z" fill="#F3C5A9"/>
<path transform="translate(727,677)" d="m0 0 3 1v2h5v4l-12 16-12 19-11 19-13 26-13 31-7 19-8 25-8 28-10 44-7 41-4 40-1 30v38l1 2 3 31v7h-1l-4-25-3-37v-55l3-36 5-35 6-31 12-48 8-26 10-28 11-26 12-25 12-22 4-5 5-3 5-9 4-6 2 3v-5l1-2h2z" fill="#EBC4B1"/>
<path transform="translate(788,1303)" d="m0 0 4 2 1 4 3 1v2h2l7 8 7 5v2l5 2 5 4 16 10 16 8 3 3-14 1h-97l2-4 9-12 8-10 9-11 12-13z" fill="#F7669F"/>
<path transform="translate(1211,1303)" d="m0 0 8 6 9 11 5 6 11 14 4 4 4 7 1 4h-96l-14-1 3-3 16-8 10-6 9-6h2v-2l6-4 13-12z" fill="#FB669F"/>
<path transform="translate(824,856)" d="m0 0 2 3 5 13v4l-7 6-9 11-10 12-20 28-1 4-5 5-1 2h-2l-2 6-8 14-1 8-2 20v6l1 2h-2v14h1v10l4 2h-6l1 10v11l1 21-2 2-7-25v-55l3-39 2-7 12-19 15-22 12-16 10-13h2l2-4 10-11z" fill="#B18F98"/>
<path transform="translate(1198,1283)" d="m0 0h5l1 7-7 9-9 10h-2l-2 4-17 12-13 8-16 8-20 8-14 5h-35l2-2 20-8 26-12 14-8 16-11 9-9 5-8 2-10 21-1z" fill="#B34D92"/>
<path transform="translate(840,674)" d="m0 0 1 4-5 25-3 30v40l2 21 4 24 6 24 8 24 8 18 8 16 11 19 12 17 10 13-3 1-16-8-7-6-12-22-8-16-10-21-9-23-6-20-5-30-2-20v-36l3-26 5-23z" fill="#EDC3AC"/>
<path transform="translate(491,768)" d="m0 0h169l-3 10-2 3h-165l-4-4v-5l2-3z" fill="#47EE91"/>
<path transform="translate(492,1206)" d="m0 0h160l5 8 2 5h-170l-3-4v-5l3-3z" fill="#47EE91"/>
<path transform="translate(682,1465)" d="m0 0h1l2 13v7l-4 8-8 21-6 18-12 40-5 22-5 25v21l1 7v9h2l6 15 6 10 8 10 9 8 3 3-5-2-10-7-9-8-9-12-8-16-4-14-1-7v-17l5-26 8-32 10-33 12-33 11-26z" fill="#EDEBF3"/>
<path transform="translate(1364,1612)" d="m0 0 2 4v18l-3 17-4 12-6 9-7 10-10 10-10 7-14 7-16 4-3-1-5-11v-8l1-3 16-4 12-5 11-7 9-8h2v-2h2v-2h2l2-4 6-9 5-8 5-12z" fill="#B34D91"/>
<path transform="translate(1365,841)" d="m0 0h144l5 4-1 7-3 2h-143l-3-12z" fill="#47EE91"/>
<path transform="translate(1374,1133)" d="m0 0h134l5 3 1 1-1 7-3 2h-140l3-12z" fill="#47EE91"/>
<path transform="translate(491,914)" d="m0 0h129l-1 10-1 3h-128l-4-4v-5z" fill="#47EE91"/>
<path transform="translate(1388,987)" d="m0 0h121l3 1 2 4v5l-4 3h-122z" fill="#47EE91"/>
<path transform="translate(1314,1494)" d="m0 0 2 4 9 27 7 25 8 38v5l-7-6-11-8-8-5-10-4 3-26 6-48z" fill="#B44D92"/>
<path transform="translate(946,969)" d="m0 0h3l2 2 11 6 16 4h27l3 1v-2l7-1 9-4 8-1 17 5 15 2 4 2 5-1-3 3-22 11h-9l-13-5-15-3h-21l-18 3-7 2h-8l-11-6-20-10 2-1h3l3-2z" fill="#F4C5A8"/>
<path transform="translate(1232,965)" d="m0 0 3 1 2 16 1 12v11l1 9v13l-3 3-3-1 4-3v-8l-2-13-6-4-17-6-20-6-21-8-9-3 3-1v-2l10-8 13 3 6 1h16l16-4z" fill="#F8C6A4"/>
<path transform="translate(491,622)" d="m0 0h110l4 2 1 7-4 4h-112l-4-4v-5z" fill="#47EE91"/>
<path transform="translate(1241,955)" d="m0 0h2l2 17 1 18v55l-7 26-2-4 1-19v-18l-2-1 2-2v-13l-1-10v-10l-2-20-1-8-10 3-14 3h-16l-12-2-7-3 4-4 5-2 1-4 3-1 13 3h25z" fill="#B08F98"/>
<path transform="translate(602,695)" d="m0 0h94l-2 5-5 8h-89l-3-5 1-5z" fill="#47EE91"/>
<path transform="translate(1304,695)" d="m0 0h91l5 4-1 7-3 2h-85l-7-11z" fill="#47EE91"/>
<path transform="translate(962,1128)" d="m0 0 4 2 6 10 10 6 7 2 12 1 15-2 10-5 7-8 3-5 3 1v9l-4 9-7 8-12 6-8 2h-19l-11-4-10-7-6-9-2-7v-7z" fill="#10166D"/>
<path transform="translate(970,1520)" d="m0 0h8l2 3-1 7-5 3-26 10h-2v2l10 3 20 8 4 4v6l-4 3-7-1-25-11-12-5-3-5 1-7 5-5z" fill="#FBFBFC"/>
<path transform="translate(1022,1520)" d="m0 0h8l25 11 12 5 3 3 1 8-3 5-25 11-11 5-8 1-4-3v-6l4-4 24-9 6-2v-2l-10-3-22-9-2-3v-5z" fill="#FBFBFC"/>
<path transform="translate(1428,914)" d="m0 0h81l3 1 2 3-1 7-3 2h-83l-4-5 2-6z" fill="#47ED91"/>
<path transform="translate(491,1060)" d="m0 0h79l4 2 1 7-4 4h-81l-4-4v-5z" fill="#47EE91"/>
<path transform="translate(667,622)" d="m0 0h88v2l-8 7-3 4h-78l-4-3v-6l2-3z" fill="#47EE91"/>
<path transform="translate(1430,768)" d="m0 0h79l3 1 2 3v6l-4 3h-81l-3-3v-7z" fill="#47EE91"/>
<path transform="translate(1245,622)" d="m0 0h264l4 2 1 7-4 4h-253l-10-10-2-1zm5 2 3 5 5 4h252l2-2v-5l-2-2z" fill="#60DEA4"/>
<path transform="translate(1440,1206)" d="m0 0h67l6 2 1 2v6l-3 3h-80l-3-3v-6l3-3z" fill="#47EE91"/>
<path transform="translate(727,677)" d="m0 0 3 1v2h5v4l-12 16-12 19-11 19-13 26-9 21-2-4-1-6 3-1v-5l1 3h2l-1-4 3-2-3-6 2-1-2-1-2 2 1-5 14-29 11-20 4-5 5-3 5-9 4-6 2 3v-5l1-2h2z" fill="#EABFA9"/>
<path transform="translate(1152,1205)" d="m0 0 4 1 3 16-1 9-3 8-2-2-3-5v-2l-4-2-7-3h-9l-23 9-27 9-17 4-1-9 32-8 20-7 25-11z" fill="#B34D92"/>
<path transform="translate(654,1669)" d="m0 0 11 7 10 5 16 5 17 2h2l2-4v14l-5 11-3 1-16-4-8-4-10-8-8-9-6-9v-2l-2-1-1-3z" fill="#B34E91"/>
<path transform="translate(1386,1060)" d="m0 0h63l5 3 1 5-1 3-3 2h-66v-9z" fill="#47EE91"/>
<path transform="translate(491,841)" d="m0 0h59l4 4v6l-4 3h-60l-4-4 1-6z" fill="#47EE91"/>
<path transform="translate(1453,695)" d="m0 0h56l3 1 2 3-1 7-3 2h-58l-4-3v-6l3-3z" fill="#47EE91"/>
<path transform="translate(1006,1505)" d="m0 0h5l2 3-1 12-4 15-11 44-2 3h-6l-2-2 1-11 7-27 5-23 4-12z" fill="#FBFAFC"/>
<path transform="translate(835,698)" d="m0 0h1l-1 14-2 21v40l2 21 4 24 6 24 8 24 8 18 8 16 7 12-1 2-2-1-1 2h-2l-4-14h-2l-4-6-3-7h-2l-1-8-2-1-1-6-4-7v-3-4l-1 5-3-1v-16l-1-6h-2l-1 2-3-3 1-7 2 1-2-10-3-8v-6l-2-2-1-7-1-3h2l-2-14-1-8-2-5v-19l3-3v-12h-2v-9l1-5h1l3-21h2z" fill="#B79193"/>
<path transform="translate(1211,1303)" d="m0 0 8 6-1 2h-3v2h-2v2h-2v2h-2l-1 3-8 7-12 9h-2v2l-17 10-9 5h91l2-1v3h-96l-14-1 3-3 16-8 10-6 9-6h2v-2l6-4 13-12z" fill="#B34D92"/>
<path transform="translate(492,1133)" d="m0 0h47l5 3v7l-3 3h-51l-4-4 1-6z" fill="#47EE91"/>
<path transform="translate(491,768)" d="m0 0h169l-3 10-2 3h-165l-4-4v-5l2-3zm1 1-4 3-1 4 4 3h163l4-8v-1z" fill="#60DFA4"/>
<path transform="translate(849,1206)" d="m0 0 16 8 24 10 25 8 24 6-1 9-24-6-29-10-13-6-16-8-5-3h-3z" fill="#B34E92"/>
<path transform="translate(1348,1206)" d="m0 0h44l5 2 2 3-1 6-3 2h-54l6-12z" fill="#47EE91"/>
<path transform="translate(895,1044)" d="m0 0 9 1 5 5 2 3 1 10-3 8-4 4-5 2-6-1-7-6-2-6v-7l3-8 5-4z" fill="#F7F7FA"/>
<path transform="translate(1099,1044)" d="m0 0h6l6 4 4 8v8l-3 7-4 4-5 2-6-1-6-5-3-9 1-8 4-7z" fill="#F7F7FA"/>
<path transform="translate(491,987)" d="m0 0h44l5 5-1 5-3 3h-46l-4-4 1-6z" fill="#47EE91"/>
<path transform="translate(491,695)" d="m0 0h43l4 2 1 2v6l-3 3h-46l-4-4v-5z" fill="#47EE91"/>
<path transform="translate(885,575)" d="m0 0h6l2 2-30 10-29 13-9 5v7l-4 9-10 11-14 9-8 4-7 2-15 1-14 14-7 8-8 10-2-1 2-5 4-5h2l2-4 3-3-1-2 5-2v-2h2v-3l5-1 2-4 7-4 19-2 4-2h3l1-4 10-5 3-3h2v-2l4-1v-2h2l-1-3 5-4 1-4v-4h-2l-1 2-2-5 4-3 3-1 3-2 6-1v-2l6-1v-2l5-3 5-2 3-5 4 1 2 1 5-4 5-1 12-3h2 3z" fill="#BB9494"/>
<path transform="translate(639,883)" d="m0 0 2 4 1 1v11l-3 5-2 14h-2l1 4-1 2h-2l2 5-1 9-2 10-3 35-1 16v41l1 20 1 2 3 31v7h-1l-4-25-3-37v-55l3-36 5-35 5-26z" fill="#E9CABD"/>
<path transform="translate(791,1309)" d="m0 0 5 1v2h2l7 8 7 5v2l5 2 5 4 16 10 16 8 3 3h-14l-14-7-13-8-12-9-13-11-4-5z" fill="#B44E92"/>
<path transform="translate(492,1206)" d="m0 0h160l5 8 2 5h-170l-3-4v-5l3-3zm0 2-4 3 1 5 4 2h162l-1-6-3-4z" fill="#60DFA4"/>
<path transform="translate(898,561)" d="m0 0h5l-2 2-7 2 3 1 1 3-3 3 1 2h-3v2l-8-1v2h-3l-1 2-2-1-11 3-7 2v2h-3l-1 2-2-3h-7l-1-3-6 1 3-3 20-8 18-6z" fill="#EBC1AB"/>
<path transform="translate(1340,768)" d="m0 0h40l4 4v6l-4 3h-35l-5-11z" fill="#47EE91"/>
<path transform="translate(598,841)" d="m0 0h38l-2 10-1 3h-36l-4-4v-5z" fill="#47EE91"/>
<path transform="translate(831,1240)" d="m0 0h3l4 8 9 12 9 10 8 8 17 13 10 5v2l-5-1-13-6-11-6-14-12-5-4-11-15-5-10z" fill="#B34D91"/>
<path transform="translate(491,622)" d="m0 0h110l4 2 1 7-4 4h-112l-4-4v-5zm0 2-3 3 1 5 1 1h112l2-5-2-4z" fill="#60DFA4"/>
<path transform="translate(1183,959)" d="m0 0 1 2-8 5-9 9h-2v2l-5 1-13-3-8-1h-28l-13 2h-5l3-2-24-1-5-1v-1h37l30-3 17-3 16 1 10-3z" fill="#AE909B"/>
<path transform="translate(1365,841)" d="m0 0h144l5 4-1 7-3 2h-143l-3-12zm3 2-1 5 3 5h134l7-2 1-6-2-2z" fill="#60DFA4"/>
<path transform="translate(1374,1133)" d="m0 0h134l5 3 1 1-1 7-3 2h-140l3-12zm1 2-2 7 2 3h129l7-2 1-1v-5l-3-2z" fill="#60DFA4"/>
<path transform="translate(788,1303)" d="m0 0 4 2 1 4-5 5-4 2-1 4-7 8h-2l-2 5-8 11h-2l-2 5-3 5h-10l2-5 12-15 11-14 15-16z" fill="#ECEAF2"/>
<path transform="translate(753,645)" d="m0 0 2 1 1 4-2 3-3 1h2v4l-3 3-2 4-4 4h-2l-2 4-3 4v4l-7-1-3-3-3 9-2-1-4 5-4 8-6 4 2-5 7-11 11-15 14-17 5-3 2-3h4z" fill="#F0BE9F"/>
<path transform="translate(1009,558)" d="m0 0h15l7 1h19v2l18 1-1 2h-11l-32-2h-24l-36 2-25 3-31 6-12 3h-3v-2l2-1-1-2 6-1h10l3-2 10-2h12v-2l15-2 17-1 12-2 10 1 2-1z" fill="#B48F93"/>
<path transform="translate(491,914)" d="m0 0h129l-1 10-1 3h-128l-4-4v-5zm-1 2-2 2v5l5 3h120l4-1 1-9z" fill="#60DFA4"/>
<path transform="translate(872,912)" d="m0 0 5 2 7 11 14 19 4 6-6-1-13-7-7-6-10-18 3-3h3z" fill="#ECBDA3"/>
<path transform="translate(1484,1060)" d="m0 0h25l3 1 2 3v6l-4 3h-27l-4-4v-5z" fill="#47EE91"/>
<path transform="translate(727,677)" d="m0 0 3 1v2h5v4l-12 16-12 19-11 19-11 22-2-4 7-14 5-8 1-5 3-2 1-3 4-4 2-5h2l2-7-3-3 1-4h3l2-11 3-3 2-4 2 3v-5l1-2h2z" fill="#F6C3A2"/>
<path transform="translate(648,858)" d="m0 0h2l2 3-2 11-9 39-7 41-4 40-2 48h-1v-44l3-36 2-20 2-6-1-10h2v-6h2l1-14 3-5 1-11 2-3 1-7h2l-2-3 1-3 1-7-1-3z" fill="#B48F93"/>
<path transform="translate(1388,987)" d="m0 0h121l3 1 2 4v5l-4 3h-122zm3 2-2 2v6l2 2h113l7-2 1-5-3-3z" fill="#60DFA4"/>
<path transform="translate(587,987)" d="m0 0h25v13h-27l-4-4 1-6z" fill="#47EE91"/>
<path transform="translate(667,622)" d="m0 0h88v2l-8 7-3 4h-78l-4-3v-6l2-3zm-1 2-2 2v5l2 2h76l4-2 4-7z" fill="#60DEA4"/>
<path transform="translate(1069,563)" d="m0 0h17l2 1v2l4-1h8l2 1 3-1 4 2-4 1 5 1 15 1v3l6 1 5 1 3-1v3l5 1 1 2 7 1h3l4 3 14 5 3 3v2l9 2 5 4-3 1-16-8-19-8-28-9-26-6-23-4-8-1z" fill="#B59093"/>
<path transform="translate(1169,1236)" d="m0 0 5 2 9 6v3l-11 12-7 7h-1l-3-12-4 2 1-4 5-5zm-14 20 2 1-2 1z" fill="#B44D91"/>
<path transform="translate(1430,768)" d="m0 0h79l3 1 2 3v6l-4 3h-81l-3-3v-7zm76 1-75 1-4 3 1 5 1 1 11 1 70-1 2-2-1-5-2-3z" fill="#60DFA4"/>
<path transform="translate(605,1133)" d="m0 0h21l3 8 1 5h-28l-3-3v-6l2-3z" fill="#47EE91"/>
<path transform="translate(602,695)" d="m0 0h94l-2 5-5 8h-89l-3-5 1-5zm0 2-3 5 3 4 6 1h77l5-3 2-3v-4z" fill="#60DFA4"/>
<path transform="translate(846,858)" d="m0 0 2 1 1 6v3 2l2 1 2 4 1 5 2 6 4 5 1 4 2-3 1 9h2l4 8v6l-4 2-8-14-10-22-2-11-4-6 1-3 2 1z" fill="#F1C5AC"/>
<path transform="translate(1304,695)" d="m0 0h91l5 4-1 7-3 2h-85l-7-11zm4 2 1 5 4 5h81l4-3v-5l-2-2z" fill="#60DFA4"/>
<path transform="translate(491,1060)" d="m0 0h79l4 2 1 7-4 4h-81l-4-4v-5zm1 2-4 3 1 6 7 1h73l3-1 1-5-3-4z" fill="#60DFA4"/>
<path transform="translate(885,575)" d="m0 0h6l2 2-30 10-29 13-9 5v7l-1 3-2-1v-6h-2l-1 2-2-5 4-3 3-1 3-2 6-1v-2l6-1v-2l5-3 5-2 3-5 4 1 2 1 5-4 5-1 12-3h2 3z" fill="#B69093"/>
<path transform="translate(1180,1206)" d="m0 0h16v10l-1 3h-24l-1-8z" fill="#47EE91"/>
<path transform="translate(804,1206)" d="m0 0h16l10 5-1 8h-24z" fill="#47EE91"/>
<path transform="translate(628,951)" d="m0 0h1v32l-1 16v41l1 20 1 2 3 31v7h-1l-4-25-3-37v-55l2-26z" fill="#E7C9BD"/>
<path transform="translate(1440,1206)" d="m0 0h67l6 2 1 2v6l-3 3h-80l-3-3v-6l3-3zm-6 2-3 1-1 6 3 3h75l4-2-1-7-2-1z" fill="#60DFA4"/>
<path transform="translate(1386,1060)" d="m0 0h63l5 3 1 5-1 3-3 2h-66v-9zm3 2-2 1-1 8 5 1h52l8-1 2-5-3-4z" fill="#60DFA4"/>
<path transform="translate(491,841)" d="m0 0h59l4 4v6l-4 3h-60l-4-4 1-6zm-1 2-2 2 1 6 7 2h48l7-1 1-1v-7l-2-1z" fill="#60DFA4"/>
<path transform="translate(675,784)" d="m0 0 2 4-7 18-11 33-6 21-2-4-1-12 5-1-1-6 2-3 1 1 4-15 2-6h2l-2-4h2l3-7v-7l1 2 3-7 1-5z" fill="#B89293"/>
<path transform="translate(1453,695)" d="m0 0h56l3 1 2 3-1 7-3 2h-58l-4-3v-6l3-3zm0 2-3 2 1 6 4 2h52l5-3v-5l-3-2z" fill="#60DFA4"/>
<path transform="translate(1171,1219)" d="m0 0h24l-2 15-2 1v-2l-4-2-15-8z" fill="#485069"/>
<path transform="translate(744,652)" d="m0 0v3l-10 12 1 4-1 3 3 1v6l-7-1-3-3-3 9-2-1-4 5-4 8-6 4 2-5 7-11 11-15 14-17z" fill="#F6C5A6"/>
<path transform="translate(805,1219)" d="m0 0h24l-3 5-11 6-7 4-2-5z" fill="#485069"/>
<path transform="translate(1009,558)" d="m0 0h15l7 1h19v2l18 1-1 2h-11l-32-2h-35l2-3z" fill="#B79293"/>
<path transform="translate(853,868)" d="m0 0 2 3 13 28 8 13-1 2-2-1-1 2h-2l-4-14h-2l-4-6-3-7h-2l-1-8-2-1-1-6-1-2z" fill="#B89293"/>
<path transform="translate(492,1133)" d="m0 0h47l5 3v7l-3 3h-51l-4-4 1-6zm-1 2-3 2v5l2 2 6 1h40l7-3v-6l-4-1z" fill="#60DFA4"/>
<path transform="translate(491,695)" d="m0 0h43l4 2 1 2v6l-3 3h-46l-4-4v-5zm0 2-3 2v5l2 2 6 1h32l8-2 2-4-4-4z" fill="#60DFA4"/>
<path transform="translate(1348,1206)" d="m0 0h44l5 2 2 3-1 6-3 2h-54l6-12zm0 2-3 6v4h47l5-3v-5l-4-2z" fill="#60DEA4"/>
<path transform="translate(1340,768)" d="m0 0h40l4 4v6l-4 3h-35l-5-11zm3 2 1 6 2 3 6 1 28-1 2-2-1-5-3-2z" fill="#60DFA4"/>
<path transform="translate(491,987)" d="m0 0h44l5 5-1 5-3 3h-46l-4-4 1-6zm0 2-2 1-1 6 5 3h41l4-4-1-4-2-2z" fill="#60DFA4"/>
<path transform="translate(604,1060)" d="m0 0h10l1 4v9h-13l-3-3v-6l3-3z" fill="#47EE91"/>
<path transform="translate(649,846)" d="m0 0 2 1 1 11-1 5h-1v-5h-2l-1 6 1 1-1 9v2 2h-2v8h-2v2l-3-1-1-6 6-25 2-2z" fill="#F4C5A7"/>
<path transform="translate(1428,914)" d="m0 0h81l3 1v2h-84-3z" fill="#60DFA4"/>
<path transform="translate(598,841)" d="m0 0h38l-2 10-1 3h-36l-4-4v-5zm1 2-3 2 1 7 3 1h30l2-2 1-6-1-2z" fill="#60DFA4"/>
<path transform="translate(680,756)" d="m0 0 1 2 2 1-2 2 3 6-3 2v3h-2l-1 4-2 1 2 5-2 4h-3v-6-3l-4 9-3 6-1-2 11-28 1-2h2z" fill="#EAC5B3"/>
<path transform="translate(840,674)" d="m0 0 1 4-4 19-2 5h-2v9l-2 15-1 2h-2l-1 11h-1v-11l5-25 8-26z" fill="#DBC3C1"/>
<path transform="translate(698,1724)" d="m0 0 11 1v1l-9 1h-126v-1l120-1z" fill="#5A617A"/>
<path transform="translate(625 1e3)" d="m0 0h1l1 32 1 5 1 20 1 2 3 31v7h-1l-4-25-3-37z" fill="#D3C2C8"/>
<path transform="translate(1134,968)" d="m0 0h6l-4 2-8 1 8 1v1l-25 1-13 2h-5l3-2-24-1-5-1v-1h37z" fill="#9994BB"/>
<path transform="translate(717,704)" d="m0 0 2 2-17 28-13 26-2-4 7-14 5-8 1-5 3-2 1-3 4-4 2-5h2l3-9z" fill="#B48F93"/>
<path transform="translate(1190,597)" d="m0 0 12 7 19 14 10 9h-3l-15-11-2-1v-2l-4-1-17-10-2-4z" fill="#D2B4B1"/>
<path transform="translate(885,928)" d="m0 0 5 5 9 12 3 5-6-1-13-7-7-6-2-4 2-1v2h2l5 5 4 2 3 3-1-6-4-5z" fill="#BF9D9F"/>
<path transform="translate(1484,1060)" d="m0 0h25l3 1 2 3v6l-4 3h-27l-4-4v-5zm0 2-3 3 1 5 5 2h21l3-1 1-6-3-3z" fill="#60DFA4"/>
<path transform="translate(715,695)" d="m0 0 1 3-1 3h-3l1 5 2 3-3 6-5 3-2-5-1 5-4-2 6-9 1-6 4-2z" fill="#E7B89F"/>
<path transform="translate(1142,574)" d="m0 0 10 3 27 13 10 6 1 2-5-1-9-3-3-4-14-5-5-3-1-2-11-4z" fill="#E3CCC8"/>
<path transform="translate(835,698)" d="m0 0h1l-1 14-2 21-1 20h-1l-1-16h-2v-9l1-5h1l3-21h2z" fill="#B69193"/>
<path transform="translate(683,751)" d="m0 0 2 3v-3h2l-1 6 2 5-10 23-2-4-1-6 3-1v-5l1 3h2l-1-4 3-2-3-6 2-1-1-3z" fill="#B69193"/>
<path transform="translate(605,1133)" d="m0 0h21l3 8 1 5h-28l-3-3v-6l2-3zm-1 2-3 2v6l7 2h18l1-4-2-6z" fill="#60DEA4"/>
<path transform="translate(587,987)" d="m0 0h25v13h-27l-4-4 1-6zm-1 2-2 1-1 5 4 4h22l2-2v-6l-1-2z" fill="#60DFA4"/>
<path transform="translate(1512,917)" d="m0 0 2 1-1 7-3 2h-83l-2-3 11 1h72l3-2z" fill="#60DFA4"/>
<path transform="translate(1380,914)" d="m0 0h7l4 3v7l-4 3h-5l-2-9z" fill="#60DFA4"/>
<path transform="translate(845,1204)" d="m0 0 4 1-1 7-3 12v10h-2l-2-6v-10l3-12z" fill="#E2E1ED"/>
<path transform="translate(673,776)" d="m0 0 2 2-1 6v7l-3 3v4l-5 2-2-8 2-1 5-13z" fill="#EABAA0"/>
<path transform="translate(758,652)" d="m0 0 3 1-6 7-10 11-7 9-2-1 2-5 4-5h2l2-4 3-3-1-2 5-2v-2h2v-3z" fill="#B99394"/>
<path transform="translate(1124,568)" d="m0 0 9 2 9 3v3l5 1 6 2-1 3-7-1-1-3-5-1-1-2-3 1-10-3z" fill="#F6C7A9"/>
<path transform="translate(1180,1206)" d="m0 0h16v10l-1 3h-24l-1-8zm1 2-8 3-1 2 2 5h18l2-2v-7l-1-1z" fill="#60DFA4"/>
<path transform="translate(804,1206)" d="m0 0h16l10 5-1 8h-24zm2 2v8l2 2h18l2-6-2-2-6-2z" fill="#60DFA4"/>
<path transform="translate(649,1673)" d="m0 0 5 2 1 4 8 8 8 7 9 7-2 1-12-8-10-9-7-9z" fill="#C6C4DB"/>
<path transform="translate(633,926)" d="m0 0 2 3-1 9-2 10-2 23-2 1v-25h1l3-20z" fill="#F5C3A3"/>
<path transform="translate(822,615)" d="m0 0 1 3-11 13-11 8-4-1-2 1 1-3 10-5 3-3h2v-2l4-1v-2h2l-1-3z" fill="#B89293"/>
<path transform="translate(829,1236)" d="m0 0h3l1 4-7 4h-3l-2 4h-4l-1-4 9-6z" fill="#E0DFEB"/>
<path transform="translate(727,677)" d="m0 0 3 1v2h5v4l-4 4-2-4-5 4-2 4-3-3 3-6 2 3v-5l1-2h2z" fill="#B79193"/>
<path transform="translate(604,1060)" d="m0 0h10l1 4v9h-13l-3-3v-6l3-3zm0 2-3 3 1 6 3 1h8l1-3-1-6-2-1z" fill="#60DFA4"/>
<path transform="translate(830,598)" d="m0 0h2l-1 4-6 3v7l-1 3-2-1v-6h-2l-1 2-2-5 4-3 3-1 3-2z" fill="#B48F93"/>
<path transform="translate(1194,1198)" d="m0 0h2v8l-4 1h-9l-1-2z" fill="#485069"/>
<path transform="translate(1020,944)" d="m0 0 2 3 1 5-12 4-11 2h-20v-1l25-2 14-4 1-3z" fill="#484F68"/>
<path transform="translate(723,678)" d="m0 0 1 2-4 8-3 5-4 6-5 3 2-5 7-11z" fill="#E3C8C0"/>
<path transform="translate(804,1198)" d="m0 0 5 2 9 5-1 2h-11l-2-1z" fill="#485069"/>
<path transform="translate(753,645)" d="m0 0 2 1 1 4-2 3-3 1h2v2l-4 1-3-1v2h-2l1-6 4-4h4z" fill="#D2A79A"/>
<path transform="translate(699,736)" d="m0 0 1 2-11 22-2-4 7-14z" fill="#BB9594"/>
<path transform="translate(1108,564)" d="m0 0 16 4v3l-18-1-2-2z" fill="#F8C5A2"/>
<path transform="translate(875,931)" d="m0 0 1 2h2l5 5 4 2 3 3 1-2 3 4 5 2v2l-5-1-11-6-7-6-2-4z" fill="#B6B5D3"/>
<path transform="translate(1190,597)" d="m0 0 12 7 4 4h-6l-10-6-2-4z" fill="#D4B4AE"/>
<path transform="translate(1169,586)" d="m0 0 6 2 14 8 1 2-5-1-9-3-3-4-6-2z" fill="#E8C8BA"/>
<path transform="translate(682,1205)" d="m0 0h1l-1 15-2 8-4-4-7-13 1-2 6 10 2 4 2-6z" fill="#485069"/>
<path transform="translate(1067,971)" d="m0 0 37 1-2 1v2l-9 1 3-2-24-1-5-1z" fill="#9695C1"/>
<path transform="translate(1382,916)" d="m0 0 6 1 2 5-3 3-4-1z" fill="#47EE91"/>
<path transform="translate(649,846)" d="m0 0 2 1 1 11-1 5h-1v-5h-2v2h-2l-1-4 2-2z" fill="#F8C5A3"/>
<path transform="translate(1252,773)" d="m0 0 2 2 9 26-4-1-6-21z" fill="#6F464F"/>
<path transform="translate(896,570)" d="m0 0h11l1 3-12 3h-3v-2l2-1-1-2z" fill="#B69193"/>
<path transform="translate(765,630)" d="m0 0 2 1-3 4h-2v2l-8 7-1 4-4 1-2 3h-2l2-4z" fill="#CFC7D6"/>
<path transform="translate(782,619)" d="m0 0 2 1-1 4-3-1v5l-5 3-4 1 3-5 2-4 5-2z" fill="#B89293"/>
<path transform="translate(1233 1e3)" d="m0 0 3 1 2 3 1 9v13l-3 3-3-1 4-3v-8l-2-13z" fill="#E2DDE6"/>
<path transform="translate(1153,580)" d="m0 0 2 1 4 3 4 2 1 3-10-3-8-3v-2h6z" fill="#B99394"/>
<path transform="translate(836,848)" d="m0 0 2 2 5 14 4 6 1 9-2-2-9-23z" fill="#D5D1E1"/>
<path transform="translate(835,698)" d="m0 0h1l-1 14-1 8h-2l-1 2 1-15 1-5h2z" fill="#B48F93"/>
<path transform="translate(1023,1013)" d="m0 0 6 2 4 3-1 22h-1l-1-21-7-5z" fill="#DCD7E2"/>
<path transform="translate(1124,568)" d="m0 0 9 2 3 2-2 3-9-2z" fill="#E5C6BA"/>
<path transform="translate(924,1088)" d="m0 0h2v3l-14 8-7 2h-6v-1l14-4 9-5v-2z" fill="#DEDBE7"/>
<path transform="translate(950,562)" d="m0 0 4 1v2l-19 2v-3z" fill="#BA9494"/>
<path transform="translate(796,1282)" d="m0 0 5 1-1 11h-2l-2-3z" fill="#E3E1EC"/>
<path transform="translate(746,1104)" d="m0 0h1l4 21v5l-2-1-3-17z" fill="#485069"/>
<path transform="translate(630,949)" d="m0 0h1v14l-1 8-2 1v-11l1-11z" fill="#FCC7A2"/>
<path transform="translate(949,1478)" d="m0 0 2 1-15 15-2-1 11-12z" fill="#D67A85"/>
<path transform="translate(783,615)" d="m0 0 2 1-3 5-4 2-4 1-2 4-3-1 10-9z" fill="#D7C9CF"/>
<path transform="translate(1281,1223)" d="m0 0h2l-2 4-8 8-6 5-2-1 8-7 4-5z" fill="#485069"/>
<path transform="translate(744,652)" d="m0 0v3l-11 13-3 4-2-1 14-17z" fill="#D5CDDA"/>
<path transform="translate(872,912)" d="m0 0 5 2-2 4-8 2-1-3 3-2h3z" fill="#DCAF9E"/>
<path transform="translate(1330,779)" d="m0 0 2 2 5 15v5l-2-1-5-18z" fill="#76444A"/>
<path transform="translate(729,688)" d="m0 0 2 1-9 13-2-1 1-4 2-2 2-4h2v-2z" fill="#B79193"/>
<path transform="translate(827,732)" d="m0 0h1v5h2l-1 7-3 1-1-9z" fill="#E6B8A1"/>
<path transform="translate(834,672)" d="m0 0h2l-2 6-5 10-2-4z" fill="#6A4752"/>
<path transform="translate(1317,1205)" d="m0 0h1l2 11v8l4-1-3 5-2-3-2-13z" fill="#485069"/>
<path transform="translate(717,1223)" d="m0 0 3 1 6 7 7 6-1 2-13-12v-2h-2z" fill="#485069"/>
<path transform="translate(829,742)" d="m0 0h2v12l-2-4-2 2-1-7z" fill="#FCC7A2"/>
<path transform="translate(742,669)" d="m0 0h2l-1 5-5 6-2-1 2-5z" fill="#B69093"/>
<path transform="translate(846,858)" d="m0 0 2 1 1 6-4 4-3-5 1-3 2 1z" fill="#F9C5A1"/>
<path transform="translate(1235,1073)" d="m0 0 2 2-2 9-2 5-2-1 2-7 2-5z" fill="#AF909A"/>
<path transform="translate(672,795)" d="m0 0 1 3-4 9-1-4v-7l1 2z" fill="#B48F93"/>
<path transform="translate(723,678)" d="m0 0 1 2-4 8-2 2-3-1z" fill="#DBC9CB"/>
<path transform="translate(691,748)" d="m0 0 2 4-4 8-2-4z" fill="#B48F93"/>
<path transform="translate(645,858)" d="m0 0 2 4-2 3-2 10h-2l2-11z" fill="#D4CBD7"/>
<path transform="translate(1104,565)" d="m0 0 5 1-4 2 3 3-10-1 2-1v-2z" fill="#B89294"/>
<path transform="translate(1260,801)" d="m0 0h3l1 3v8l-2-1z" fill="#7D4346"/>
<path transform="translate(706,703)" d="m0 0 1 4-6 9-2 4-2-1z" fill="#CECDE1"/>
<path transform="translate(819,1077)" d="m0 0 8 6 5 6-5-2-8-8z" fill="#E8DBDC"/>
<path transform="translate(674,775)" d="m0 0 2 2 2 5-2 4h-3v-6l1-2z" fill="#FBC8A5"/>
<path transform="translate(822,615)" d="m0 0 1 3-6 7-2-2h2l-1-3z" fill="#BC9594"/>
<path transform="translate(673,776)" d="m0 0 2 2-1 6h-3l-1-4z" fill="#CAA097"/>
<path transform="translate(1178,590)" d="m0 0 11 6 1 2-5-1-4-2v-2l-3-1z" fill="#D8CDD5"/>
</svg>
